# xmcd CD database file
#
# Track frame offsets:
#	150
#	31382
#	71002
#	89917
#	107237
#	136820
#	178082
#	204357
#	223657
#	239687
#	257072
#	269542
#	281957
#	293622
#
# Disc length: 4143 seconds
#
# Revision: 0
# Processed by: cddbd v1.5.2PL0 Copyright (c) Steve Scherf et al.
# Submitted via: CDex 1.51
#
DISCID=e7102d0e
DTITLE=Various Artist - The Jazz Scene: San Francisco
DYEAR=1955
DGENRE=Jazz
TTITLE0=Vince Guaraldi Quartett: Calling Dr. Funk
TTITLE1=Vince Guaraldi Quartett: Between 8th and 10th On Mission Street
TTITLE2=Vince Guaraldi Quartett: Ginza
TTITLE3=Ron Crotty Trio: The Night We Called It A Day
TTITLE4=Ron Crotty Trio: (I'm Afraid) The Masquerade Is Over
TTITLE5=Jerry Dodgion Quartett: Miss Jackie's Dish
TTITLE6=Jerry Dodgion Quartett: The Groove
TTITLE7=Charlie Mariano Sextett: Come Rain Or Come Shine
TTITLE8=Charlie Mariano Sextett: My Friend Ethel
TTITLE9=Charlie Mariano Sextett: After Coffee
TTITLE10=Charlie Mariano Sextett: Trouble Is A Man
TTITLE11=Charlie Mariano Sextett: Let's Get Away From It All
TTITLE12=Charlie Mariano Sextett: The Trill Is Gone
TTITLE13=Charlie Mariano Sextett: The Nymph
EXTD=YEAR: 1955
EXTT0=
EXTT1=
EXTT2=
EXTT3=
EXTT4=
EXTT5=
EXTT6=
EXTT7=
EXTT8=
EXTT9=
EXTT10=
EXTT11=
EXTT12=
EXTT13=
PLAYORDER=
